<svg xmlns="http://www.w3.org/2000/svg" version="1.0" width="1254.000000pt" height="1254.000000pt" viewBox="0 0 1254.000000 1254.000000" preserveAspectRatio="xMidYMid meet">

<g transform="translate(0.000000,1254.000000) scale(0.100000,-0.100000)" fill="#513726" stroke="none">
<path d="M4302 10039 c2 -6 156 -73 343 -149 187 -76 446 -181 575 -235 129 -54 276 -114 325 -135 l90 -36 0 -1019 0 -1019 -420 -87 c-540 -111 -959 -200 -964 -204 -1 -2 0 -8 3 -13 3 -6 72 5 168 25 201 43 540 113 928 193 469 97 624 129 797 165 l163 35 182 -39 c370 -79 1457 -295 1615 -321 41 -6 75 1 56 13 -5 3 -164 35 -354 71 -189 36 -429 83 -534 104 l-190 38 0 1063 0 1063 375 164 c206 91 450 197 543 237 92 39 166 76 164 82 -2 5 -11 9 -20 7 -35 -6 -1076 -463 -1626 -714 -106 -48 -200 -88 -207 -88 -15 0 -375 147 -1014 412 -512 213 -970 398 -988 398 -7 0 -12 -5 -10 -11z m2748 -1554 c0 -907 -2 -1045 -15 -1045 -22 0 -694 138 -705 145 -11 7 -14 1405 -3 1544 l6 84 116 54 c64 30 136 63 161 73 25 11 128 57 230 104 102 46 191 85 198 85 9 1 12 -214 12 -1044z" fill="#513726"/>
<path d="M6130 6534 c0 -6 18 -16 41 -23 71 -21 70 -12 67 -590 -3 -485 -4 -510 -22 -530 -11 -12 -37 -26 -58 -33 -21 -6 -38 -15 -38 -20 0 -4 83 -8 185 -8 173 0 231 9 151 24 -19 4 -45 15 -58 25 -23 19 -23 20 -23 263 l0 243 87 0 c105 0 108 -3 180 -129 106 -188 191 -328 215 -357 48 -56 96 -73 208 -74 108 0 133 12 61 30 -101 26 -136 66 -310 355 -49 80 -99 157 -114 172 -24 26 -24 28 -6 34 120 44 190 97 232 178 36 68 38 196 5 267 -30 66 -90 123 -159 150 -56 22 -75 24 -352 29 -207 3 -292 2 -292 -6z m506 -49 c67 -20 117 -64 151 -133 24 -49 28 -68 27 -142 0 -102 -24 -162 -86 -214 -54 -46 -113 -61 -243 -61 l-110 0 0 270 0 269 25 13 c34 17 175 16 236 -2z" fill="#513726"/>
<path d="M5520 6535 c0 -3 19 -14 43 -24 76 -33 72 -1 75 -516 4 -604 -7 -698 -88 -740 -51 -26 -86 -20 -130 25 -42 43 -63 49 -98 24 -25 -17 -29 -60 -9 -88 18 -25 85 -37 150 -26 125 20 224 104 275 234 14 35 17 110 22 537 6 558 1 526 82 551 21 6 38 15 38 20 0 4 -81 8 -180 8 -99 0 -180 -2 -180 -5z" fill="#513726"/>
<path d="M4444 4674 c-3 -11 -4 -40 -2 -65 l3 -44 15 30 c27 58 38 65 107 65 l63 0 0 -215 c0 -202 -1 -216 -20 -235 -11 -11 -29 -20 -40 -20 -11 0 -20 -4 -20 -10 0 -6 43 -10 110 -10 67 0 110 4 110 10 0 6 -8 10 -18 10 -10 0 -26 6 -35 13 -16 11 -18 36 -18 236 l-1 225 63 -3 c72 -3 83 -9 101 -57 16 -46 32 -43 24 4 -3 20 -6 48 -6 62 l0 25 -215 0 c-210 0 -216 -1 -221 -21z" fill="#513726"/>
<path d="M7722 4686 c-75 -24 -119 -63 -153 -132 -28 -57 -31 -70 -27 -136 5 -95 35 -158 97 -203 111 -82 278 -65 365 37 82 96 88 252 12 350 -59 78 -194 116 -294 84z m176 -45 c18 -12 45 -46 60 -74 24 -46 27 -63 27 -147 -1 -112 -21 -163 -82 -205 -44 -29 -117 -34 -162 -11 -144 75 -163 354 -31 444 46 32 139 28 188 -7z" fill="#513726"/>
<path d="M9443 4680 c-73 -33 -103 -112 -68 -180 17 -33 61 -68 125 -100 74 -37 100 -67 100 -117 0 -121 -168 -128 -219 -10 -23 53 -36 32 -24 -39 8 -46 11 -49 48 -60 87 -27 172 -10 222 42 77 82 45 184 -77 244 -105 52 -139 96 -120 156 16 47 69 71 122 54 33 -9 43 -19 59 -56 11 -24 23 -43 27 -40 4 2 5 27 4 55 -4 49 -5 51 -40 61 -56 15 -112 12 -159 -10z" fill="#513726"/>
<path d="M2870 4680 c0 -5 9 -10 19 -10 47 0 51 -18 51 -236 0 -191 -1 -205 -20 -224 -11 -11 -27 -20 -35 -20 -8 0 -15 -4 -15 -10 0 -6 40 -10 100 -10 102 0 122 7 72 26 l-29 11 -6 116 c-7 135 1 316 16 335 5 6 18 12 28 12 11 0 19 5 19 10 0 6 -40 10 -100 10 -60 0 -100 -4 -100 -10z" fill="#513726"/>
<path d="M3493 4684 c3 -3 20 -13 39 -22 l33 -17 0 -215 0 -215 -32 -15 c-18 -8 -33 -18 -33 -22 0 -5 41 -8 90 -8 50 0 90 3 90 8 0 4 -15 14 -33 22 l-32 15 -7 185 c-3 102 -5 186 -3 188 1 1 80 -91 175 -205 94 -114 178 -209 186 -211 12 -3 14 33 14 220 0 238 6 270 48 276 12 2 22 8 22 13 0 5 -40 9 -90 9 -53 0 -90 -4 -90 -10 0 -5 11 -10 23 -10 51 0 57 -22 57 -203 0 -92 -3 -167 -7 -166 -5 0 -48 50 -98 111 -49 62 -121 149 -160 195 l-70 82 -64 1 c-35 0 -62 -3 -58 -6z" fill="#513726"/>
<path d="M5290 4680 c0 -5 6 -10 14 -10 8 0 22 -7 30 -16 14 -13 16 -47 16 -220 0 -191 -1 -205 -20 -224 -11 -11 -27 -20 -35 -20 -8 0 -15 -5 -15 -10 0 -7 65 -10 187 -8 l188 3 14 53 c14 54 7 82 -13 47 -6 -10 -23 -32 -38 -47 -24 -26 -33 -28 -100 -28 -44 0 -79 5 -86 12 -8 8 -12 48 -12 115 l0 103 61 0 c69 0 99 -12 99 -40 0 -10 5 -22 10 -25 6 -4 10 22 10 69 0 78 -8 94 -25 54 -9 -20 -18 -23 -82 -26 l-73 -3 0 99 c0 95 1 100 23 106 33 9 77 7 119 -4 29 -8 40 -18 49 -45 20 -53 35 -43 31 20 l-4 55 -174 0 c-109 0 -174 -4 -174 -10z" fill="#513726"/>
<path d="M6080 4681 c0 -6 8 -11 18 -11 39 0 42 -16 42 -243 l0 -219 -30 -11 c-51 -19 -34 -27 63 -27 102 0 126 8 75 24 l-33 11 -3 103 -3 102 34 0 c40 0 48 -8 116 -123 60 -100 87 -120 159 -115 l47 3 -38 17 c-29 14 -52 39 -106 124 l-70 107 32 17 c41 22 77 75 77 112 0 45 -29 97 -64 116 -38 20 -316 32 -316 13z m239 -27 c63 -25 86 -89 56 -160 -17 -40 -63 -64 -125 -64 l-40 0 0 114 c0 82 4 116 13 119 23 10 57 7 96 -9z" fill="#513726"/>
<path d="M6930 4680 c0 -5 8 -10 18 -10 39 0 42 -16 42 -243 l0 -219 -30 -11 c-16 -6 -30 -15 -30 -19 0 -12 188 -10 195 2 3 6 -3 10 -14 10 -47 0 -51 17 -51 240 0 176 2 211 16 224 8 9 22 16 29 16 8 0 17 5 20 10 4 6 -30 10 -94 10 -61 0 -101 -4 -101 -10z" fill="#513726"/>
<path d="M8490 4681 c0 -6 9 -11 20 -11 35 0 40 -32 40 -243 0 -185 -2 -205 -18 -220 -10 -10 -26 -17 -35 -17 -9 0 -17 -4 -17 -10 0 -6 40 -10 100 -10 103 0 122 7 71 27 -35 13 -44 45 -39 143 l3 65 39 0 c39 0 40 -1 93 -90 30 -49 64 -100 77 -113 26 -27 80 -41 116 -32 l25 7 -27 11 c-14 6 -36 21 -48 34 -19 20 -130 193 -130 202 0 2 14 9 30 16 90 37 101 175 17 226 -27 16 -55 20 -174 22 -99 3 -143 1 -143 -7z m238 -27 c23 -8 44 -26 51 -40 14 -32 14 -96 0 -128 -16 -34 -70 -58 -122 -54 l-42 3 -3 105 c-2 90 0 107 15 117 23 17 54 16 101 -3z" fill="#513726"/>
<path d="M5613 3623 c362 -2 952 -2 1310 0 359 1 63 2 -658 2 -720 0 -1014 -1 -652 -2z" fill="#513726"/>
<path d="M2660 3150 c0 -30 55 -180 65 -177 5 2 20 32 33 67 13 36 25 66 27 68 2 2 14 -28 26 -67 13 -39 28 -70 34 -68 9 3 62 146 64 175 2 33 -20 -5 -40 -68 -13 -39 -26 -67 -29 -63 -4 5 -15 36 -25 71 -10 35 -24 62 -31 62 -8 0 -22 -31 -35 -72 l-22 -73 -23 70 c-24 68 -44 103 -44 75z" fill="#513726"/>
<path d="M3128 3118 l-3 -43 -52 -3 -53 -3 0 40 c0 23 -4 41 -10 41 -6 0 -10 -37 -10 -90 0 -91 16 -126 22 -47 l3 42 50 -1 50 -1 3 -42 c6 -73 22 -33 22 54 0 87 -17 127 -22 53z" fill="#513726"/>
<path d="M3720 3064 l0 -94 65 0 c37 0 65 4 65 10 0 6 -25 10 -55 10 l-55 0 0 34 c0 34 1 35 48 39 l47 3 -48 2 c-48 2 -48 2 -45 35 3 31 5 32 58 38 46 5 49 6 20 9 -19 2 -50 4 -67 5 l-33 2 0 -93z" fill="#513726"/>
<path d="M4080 3154 c0 -25 68 -179 79 -179 13 0 86 163 77 172 -10 11 -22 -7 -46 -71 -13 -36 -27 -66 -30 -66 -3 0 -16 30 -30 66 -21 58 -50 102 -50 78z" fill="#513726"/>
<path d="M4472 3145 c-16 -12 -22 -25 -20 -43 2 -22 12 -30 56 -46 55 -20 64 -38 30 -60 -13 -8 -26 -7 -50 2 -38 14 -51 6 -24 -14 47 -34 122 -3 114 47 -2 17 -15 28 -45 39 -60 22 -72 36 -50 57 15 15 22 16 49 5 33 -12 49 -9 32 8 -19 19 -68 22 -92 5z" fill="#513726"/>
<path d="M4680 3065 c0 -62 4 -94 10 -90 6 3 10 44 10 90 0 46 -4 87 -10 90 -6 4 -10 -28 -10 -90z" fill="#513726"/>
<path d="M4840 3147 c-56 -29 -64 -117 -13 -157 60 -47 142 -6 143 72 0 69 -72 116 -130 85z m85 -32 c30 -30 32 -64 4 -99 -28 -35 -70 -35 -99 1 -26 33 -21 79 11 106 29 24 55 21 84 -8z" fill="#513726"/>
<path d="M5194 3145 c-3 -8 -4 -39 -2 -70 1 -30 0 -55 -3 -55 -3 0 -26 29 -50 65 -24 35 -50 65 -56 65 -10 0 -13 -25 -13 -92 0 -105 17 -112 22 -9 l3 63 49 -71 c26 -39 52 -71 57 -71 5 0 9 43 9 95 0 91 -4 112 -16 80z" fill="#513726"/>
<path d="M5476 3153 c-10 -10 -7 -171 4 -178 5 -3 10 24 12 67 l3 73 29 -48 c15 -26 33 -46 40 -44 6 2 22 23 36 48 l25 44 3 -72 c2 -40 7 -73 13 -73 6 0 9 36 7 93 -2 53 -7 92 -13 91 -5 -1 -23 -24 -40 -52 -16 -29 -32 -52 -35 -52 -3 0 -18 22 -33 50 -29 52 -40 63 -51 53z" fill="#513726"/>
<path d="M6441 3143 c-37 -30 -23 -69 29 -84 51 -15 67 -33 50 -54 -15 -18 -43 -19 -72 -4 -27 14 -38 1 -14 -17 27 -19 81 -18 101 2 9 9 15 28 13 43 -2 20 -12 29 -45 41 -60 22 -72 36 -50 57 15 15 22 16 49 5 33 -12 49 -9 32 8 -21 21 -69 22 -93 3z" fill="#513726"/>
<path d="M7306 3152 c-7 -12 -76 -172 -76 -178 0 -14 19 0 28 21 10 21 18 25 57 25 39 0 47 -3 55 -25 5 -14 14 -25 20 -25 14 0 14 -2 -26 92 -38 89 -48 105 -58 90z m29 -68 c8 -20 15 -38 15 -40 0 -2 -16 -4 -35 -4 -19 0 -35 2 -35 4 0 9 31 76 35 76 3 0 12 -16 20 -36z" fill="#513726"/>
<path d="M7488 3153 c-9 -18 -2 -173 7 -170 6 1 10 30 10 65 0 34 2 62 5 62 3 0 27 -32 53 -70 26 -39 52 -70 58 -70 5 0 9 40 9 90 0 105 -18 123 -22 23 l-3 -68 -48 67 c-49 70 -63 84 -69 71z" fill="#513726"/>
<path d="M7763 3150 c-24 -10 -37 -39 -27 -63 3 -9 28 -23 55 -32 36 -12 49 -22 49 -36 0 -24 -43 -35 -77 -20 -32 15 -45 4 -19 -15 36 -26 106 -14 120 21 10 27 -12 54 -54 66 -51 15 -67 33 -50 54 14 17 56 20 65 5 8 -12 35 -13 35 -1 0 5 -14 14 -31 20 -37 13 -37 13 -66 1z" fill="#513726"/>
<path d="M7960 3063 c0 -56 4 -93 10 -93 6 0 10 18 10 40 0 40 0 40 39 40 22 0 43 5 46 10 4 6 -12 10 -39 10 -44 0 -46 1 -46 30 0 25 4 30 33 35 19 4 40 5 48 3 8 -1 14 2 14 7 0 6 -26 10 -57 10 l-58 0 0 -92z" fill="#513726"/>
<path d="M8214 3150 c-32 -13 -54 -50 -54 -88 0 -45 46 -92 90 -92 45 0 90 47 90 94 0 64 -69 111 -126 86z m81 -35 c30 -30 32 -64 4 -99 -40 -50 -119 -17 -119 51 0 29 42 73 70 73 12 0 32 -11 45 -25z" fill="#513726"/>
<path d="M8825 3152 c-6 -4 -23 -28 -38 -54 -15 -27 -30 -48 -32 -48 -2 0 -16 23 -31 50 -41 76 -54 67 -54 -40 0 -108 18 -122 22 -17 l3 72 28 -52 c15 -29 29 -53 32 -53 3 0 18 24 35 53 l30 52 0 -72 c0 -42 4 -73 10 -73 6 0 10 38 10 95 0 52 -1 95 -2 95 -2 0 -8 -4 -13 -8z" fill="#513726"/>
<path d="M9160 3150 c-23 -7 -23 -7 10 -11 l35 -4 3 -82 c2 -46 7 -83 12 -83 5 0 10 37 12 83 l3 82 35 6 c33 6 33 6 -12 8 -25 0 -52 3 -60 5 -7 2 -24 1 -38 -4z" fill="#513726"/>
<path d="M9554 3150 c-32 -13 -54 -50 -54 -91 0 -50 26 -79 76 -86 33 -4 45 -1 70 20 24 21 29 33 29 71 0 32 -6 51 -20 65 -24 24 -71 34 -101 21z m81 -35 c30 -30 32 -64 4 -99 -40 -50 -119 -17 -119 51 0 29 42 73 70 73 12 0 32 -11 45 -25z" fill="#513726"/>
<path d="M3252 3063 l3 -88 54 -3 c78 -5 101 11 26 18 -59 5 -60 6 -60 35 0 29 2 30 50 34 l50 5 -50 5 c-48 6 -50 7 -50 36 0 29 1 30 60 36 l60 6 -73 1 -73 2 3 -87z" fill="#513726"/>
<path d="M3480 3060 c0 -88 16 -126 22 -52 2 29 7 38 25 40 16 2 29 -7 49 -37 15 -23 31 -41 35 -41 14 0 11 9 -11 41 l-21 28 21 21 c22 22 26 60 8 78 -7 7 -38 12 -70 12 l-58 0 0 -90z m101 70 c24 -13 25 -46 2 -58 -10 -5 -31 -8 -48 -7 -23 1 -31 7 -33 24 -2 12 -1 29 2 37 6 16 49 19 77 4z" fill="#513726"/>
<path d="M4330 3060 c0 -53 4 -90 10 -90 6 0 10 37 10 90 0 53 -4 90 -10 90 -6 0 -10 -37 -10 -90z" fill="#513726"/>
<path d="M5755 3063 l0 -88 68 -3 c42 -2 67 1 67 8 0 6 -23 10 -54 10 -30 0 -57 3 -59 8 -6 11 7 66 16 64 15 -4 80 -2 76 2 -3 3 -24 6 -47 7 -36 3 -42 6 -42 26 0 13 0 26 0 31 0 4 26 10 57 13 l58 6 -70 1 -71 2 1 -87z" fill="#513726"/>
<path d="M5980 3060 l0 -90 64 0 c36 0 68 5 71 10 4 6 -17 10 -55 10 l-61 0 3 33 c3 30 6 32 48 36 l45 5 -45 5 c-42 6 -45 8 -45 36 0 29 1 30 47 30 25 0 49 3 54 8 4 4 -23 7 -59 7 l-67 0 0 -90z" fill="#513726"/>
<path d="M6218 3143 l32 -4 0 -79 c0 -43 4 -81 9 -84 8 -6 21 71 21 131 0 28 3 32 33 36 17 2 -4 4 -48 4 -44 0 -65 -2 -47 -4z" fill="#513726"/>
<path d="M6800 3141 l35 -6 3 -82 c2 -46 7 -83 12 -83 5 0 10 37 12 83 l3 82 35 6 c22 4 3 6 -50 6 -53 0 -72 -2 -50 -6z" fill="#513726"/>
<path d="M7012 3065 c3 -85 20 -118 26 -50 4 49 34 47 68 -5 25 -37 44 -51 44 -31 0 4 -10 20 -21 35 l-21 27 21 20 c23 22 28 58 9 77 -7 7 -38 12 -70 12 l-59 0 3 -85z m102 62 c10 -7 17 -22 14 -33 -2 -15 -13 -20 -51 -22 -46 -3 -47 -2 -47 26 0 16 3 32 7 35 11 12 58 8 77 -6z" fill="#513726"/>
<path d="M8430 3066 c0 -86 16 -129 22 -59 2 30 7 39 25 41 16 2 29 -7 49 -37 15 -23 31 -41 35 -41 14 0 11 9 -12 42 l-21 29 21 15 c23 17 28 63 9 82 -7 7 -38 12 -70 12 l-58 0 0 -84z m113 54 c5 -4 7 -16 5 -26 -4 -20 -58 -40 -82 -31 -16 7 -22 57 -9 71 9 9 74 -2 86 -14z" fill="#513726"/>
<path d="M8970 3074 c-44 -106 -43 -104 -31 -104 6 0 16 11 21 25 8 22 16 25 55 25 39 0 47 -3 55 -25 5 -14 15 -25 21 -25 6 0 9 6 6 13 -37 96 -72 167 -82 167 -7 0 -27 -34 -45 -76z m68 -1 c11 -33 11 -33 -24 -33 -18 0 -34 2 -34 4 0 2 7 20 16 41 17 41 25 38 42 -12z" fill="#513726"/>
<path d="M9380 3060 c0 -53 4 -90 10 -90 6 0 10 37 10 90 0 53 -4 90 -10 90 -6 0 -10 -37 -10 -90z" fill="#513726"/>
<path d="M9770 3060 c0 -53 4 -90 10 -90 6 0 10 30 10 70 0 39 3 70 8 70 4 -1 28 -32 55 -70 26 -39 52 -70 57 -70 6 0 10 38 10 90 0 105 -18 123 -22 23 l-3 -68 -49 68 c-28 37 -56 67 -63 67 -10 0 -13 -23 -13 -90z" fill="#513726"/>
</g>
</svg>
